<svg id="MArca" xmlns="http://www.w3.org/2000/svg" width="98.115" height="26.854" viewBox="0 0 98.115 26.854">
  <g id="Grupo_47" data-name="Grupo 47" transform="translate(0 0)">
    <path id="Trazado_41" data-name="Trazado 41" d="M49.065,26.854c-13.032,0-25.291-1.365-34.516-3.838C5.158,20.5,0,17.1,0,13.427S5.158,6.342,14.534,3.838C23.759,1.365,36.018,0,49.065,0S74.356,1.365,83.581,3.838c9.376,2.518,14.534,5.917,14.534,9.588s-5.158,7.085-14.534,9.588c-9.224,2.473-21.483,3.838-34.516,3.838h0Zm0-26.1c-12.972,0-25.155,1.35-34.318,3.808C5.856,6.949.759,10.18.759,13.427s5.1,6.478,13.973,8.86C23.9,24.745,36.078,26.1,49.05,26.1s25.155-1.35,34.318-3.808c8.875-2.382,13.973-5.614,13.973-8.86s-5.1-6.478-13.973-8.86C74.2,2.109,62.022.759,49.05.759h.015Z" transform="translate(0 0)" fill="#123aa0"/>
    <g id="Grupo_46" data-name="Grupo 46" transform="translate(13.139 5.295)">
      <path id="Trazado_42" data-name="Trazado 42" d="M96.4,54.6s.046,2.534,0,2.534c-.834,0-1.047.319-1.047,1.441v4.749c0,2.124-2.17,3.2-4.506,3.2S86.6,65.6,86.6,63.324v-.971h3.171c0,1.153.243,1.487,1.062,1.487s1.047-.319,1.047-1.487V58.575c0-1.123-.212-1.441-1.047-1.441s0-2.534,0-2.534H96.4Z" transform="translate(-86.6 -51.611)" fill="#123aa0"/>
      <path id="Trazado_43" data-name="Trazado 43" d="M165.978,57.8v.561c0,1.881-.774,3.414-3.9,3.414h-2.731v.394c0,1.153.212,1.487,1.047,1.487h.986c.046,0,0,2.488,0,2.488h-6.554s-.045-2.488,0-2.488c.834,0,1.047-.319,1.047-1.487V58.39c0-1.123-.212-1.487-1.047-1.487s0-2.5,0-2.5h7.207c3.11,0,3.945,1.517,3.945,3.368h0v.03Zm-3.823,1v-.273c-.015-.88-.425-1.608-1.912-1.563h-.9v3.444h.941c1.487,0,1.866-.728,1.866-1.608Z" transform="translate(-144.161 -51.442)" fill="#123aa0"/>
      <path id="Trazado_44" data-name="Trazado 44" d="M245.03,52.479v5.143h-3.884c-.03-1.5-.44-2.716-1.836-2.716s-1.805,1.669-1.805,3.429.243,3.429,1.912,3.429,1.881-1.259.834-1.259-.015-1.077-.015-1.077h4.794v4.931h-3.292l.03-3.808c0,1.047-.349,4.005-3.823,4.005s-4.445-2.048-4.445-6.22,2.048-6.236,4.445-6.236c3.869,0,3.914,3.641,3.914,4.46v-4.1h3.171Z" transform="translate(-211.213 -49.49)" fill="#123aa0"/>
      <path id="Trazado_45" data-name="Trazado 45" d="M326.1,60.471c0,3.338-1.214,5.856-5.78,5.856h-6.053s-.061-2.488,0-2.488c.819,0,1.047-.319,1.047-1.487V58.575c0-1.123-.228-1.441-1.047-1.441s0-2.534,0-2.534h6.053c4.552,0,5.78,2.534,5.78,5.871Zm-3.884-.258c0-1.7-.41-3.11-1.9-3.11H318.8V63.84h1.517c1.487,0,1.9-1.381,1.9-3.1v-.516h0Z" transform="translate(-279.415 -51.611)" fill="#123aa0"/>
      <path id="Trazado_46" data-name="Trazado 46" d="M399.3,112.911c-1.9,0-1.9-.819-1.9-1.805s0-1.805,1.9-1.805,1.927.8,1.927,1.805S401.223,112.911,399.3,112.911Z" transform="translate(-350.246 -98.012)" fill="#123aa0"/>
      <path id="Trazado_47" data-name="Trazado 47" d="M440.357,73.175h-3.763V70.156h-.167c0,1.745-.349,3.216-3.459,3.216s-3.869-.622-3.869-3.019,2.109-3.019,4.051-3.019h3.08c-.121-1.183-.637-2.109-1.775-2.109a1.655,1.655,0,0,0-1.5,1.123l-3.687.091V63.025l2.852-.243.425.258V65.8h.167a2.751,2.751,0,0,1,3.034-3.2c3.5,0,3.52,1.79,3.52,5.386V69.2c0,1.138.243,1.487,1.062,1.487s0,2.488,0,2.488Zm-4.1-5.037h-1.805c-2.458,0-2.094,2.625,0,2.625S436.246,69.655,436.261,68.138Z" transform="translate(-377.137 -58.397)" fill="#123aa0"/>
      <path id="Trazado_48" data-name="Trazado 48" d="M510.814,49.617h-5.249s-.061-2.488,0-2.488c.819,0,1.047-.319,1.047-1.487V43.229c0-1.138-.228-1.487-1.047-1.487s0-2.2,0-2.2l3.747-.3.44.258v6.145c0,1.153.243,1.487,1.062,1.487s0,2.5,0,2.5h0ZM508.037,34.9c-1.942,0-1.942.819-1.942,1.836s0,1.836,1.942,1.836,1.942-.819,1.942-1.836S509.979,34.9,508.037,34.9Z" transform="translate(-441.691 -34.9)" fill="#123aa0"/>
    </g>
  </g>
</svg>
