<?xml version="1.0" encoding="UTF-8"?>
<svg id="Componente_1_17" xmlns="http://www.w3.org/2000/svg" version="1.1" viewBox="0 0 468 118.7">
  <!-- Generator: Adobe Illustrator 30.3.0, SVG Export Plug-In . SVG Version: 2.1.3 Build 182)  -->
  <defs>
    <style>
      .st0 {
        fill: #123aa0;
      }

      .st1, .st2 {
        isolation: isolate;
      }

      .st3, .st2 {
        fill: #ff8900;
      }

      .st2 {
        font-family: CSClaireMono-Regular, 'CS Claire Mono';
        font-size: 56px;
      }
    </style>
  </defs>
  <g id="Trazado_52">
    <path class="st0" d="M234,117.7c-31.6,0-62.2-1.6-91-4.7-13.8-1.5-27.2-3.3-39.7-5.5-12.4-2.1-24-4.6-34.6-7.2-10.6-2.7-20.1-5.6-28.5-8.7-8.4-3.2-15.6-6.5-21.4-10-5.9-3.5-10.4-7.2-13.4-10.9-3-3.7-4.5-7.5-4.5-11.3s1.5-7.6,4.5-11.3c3-3.7,7.5-7.4,13.4-10.9,5.8-3.5,13-6.9,21.4-10,8.3-3.1,17.9-6.1,28.5-8.7,10.6-2.7,22.2-5.1,34.6-7.2,12.5-2.1,25.8-4,39.7-5.5,28.8-3.1,59.4-4.7,91-4.7s62.2,1.6,91,4.7c13.8,1.5,27.2,3.3,39.7,5.5,12.4,2.1,24,4.6,34.6,7.2,10.6,2.7,20.1,5.6,28.5,8.7,8.4,3.2,15.6,6.5,21.4,10,5.9,3.5,10.4,7.2,13.4,10.9,3,3.7,4.5,7.5,4.5,11.3s-1.5,7.6-4.5,11.3c-3,3.7-7.5,7.4-13.4,10.9-5.8,3.5-13,6.9-21.4,10-8.3,3.1-17.9,6.1-28.5,8.7-10.6,2.7-22.2,5.1-34.6,7.2-12.5,2.1-25.8,4-39.7,5.5-28.8,3.1-59.4,4.7-91,4.7Z"/>
    <path class="st3" d="M234,2c-31.5,0-62.1,1.6-90.9,4.7-13.8,1.5-27.2,3.3-39.6,5.5-12.3,2.1-23.9,4.5-34.5,7.2-10.5,2.7-20.1,5.6-28.4,8.7-8.3,3.1-15.5,6.5-21.2,9.9-5.8,3.5-10.2,7.1-13.1,10.7-2.9,3.5-4.3,7.1-4.3,10.7s1.5,7.2,4.3,10.7c2.9,3.6,7.3,7.2,13.1,10.7,5.8,3.5,12.9,6.8,21.2,9.9,8.3,3.1,17.8,6,28.4,8.7,10.5,2.7,22.1,5.1,34.5,7.2,12.5,2.1,25.8,4,39.6,5.5,28.8,3.1,59.3,4.7,90.9,4.7s62.1-1.6,90.9-4.7c13.8-1.5,27.2-3.3,39.6-5.5,12.3-2.1,23.9-4.5,34.5-7.2,10.5-2.7,20.1-5.6,28.4-8.7,8.3-3.1,15.5-6.5,21.2-9.9,5.8-3.5,10.2-7.1,13.1-10.7,2.9-3.5,4.3-7.1,4.3-10.7s-1.5-7.2-4.3-10.7c-2.9-3.6-7.3-7.2-13.1-10.7-5.8-3.5-12.9-6.8-21.2-9.9-8.3-3.1-17.8-6-28.4-8.7-10.5-2.7-22.1-5.1-34.5-7.2-12.5-2.1-25.8-4-39.6-5.5-28.8-3.1-59.3-4.7-90.9-4.7M234,0C363.2,0,468,26.6,468,59.3s-104.8,59.3-234,59.3S0,92.1,0,59.3,104.8,0,234,0Z"/>
  </g>
  <g id="VER_TODO" class="st1">
    <text class="st2" transform="translate(101.4 80.1)"><tspan x="0" y="0">VER TODO</tspan></text>
  </g>
</svg>