<?xml version="1.0" encoding="UTF-8"?>
<svg id="Componente_1_19" xmlns="http://www.w3.org/2000/svg" version="1.1" viewBox="0 0 387.4 97.9">
  <!-- Generator: Adobe Illustrator 30.3.0, SVG Export Plug-In . SVG Version: 2.1.3 Build 182)  -->
  <defs>
    <style>
      .st0 {
        fill: #123aa0;
      }

      .st1 {
        isolation: isolate;
      }

      .st2 {
        fill: #fff;
      }

      .st3 {
        fill: none;
        stroke: #123aa0;
      }
    </style>
  </defs>
  <g id="Trazado_49">
    <path class="st2" d="M193.7,96.9c-26.1,0-51.4-1.3-75.3-3.8-11.5-1.2-22.5-2.7-32.8-4.5-10.2-1.7-19.8-3.8-28.6-6-8.7-2.2-16.7-4.6-23.5-7.2-6.9-2.6-12.9-5.4-17.7-8.2-4.8-2.9-8.6-5.9-11-9-2.5-3-3.7-6.1-3.7-9.2s1.2-6.2,3.7-9.2c2.5-3.1,6.2-6.1,11-9,4.8-2.9,10.8-5.6,17.7-8.2,6.9-2.6,14.8-5,23.5-7.2,8.7-2.2,18.4-4.2,28.6-6,10.3-1.8,21.4-3.3,32.8-4.5,23.8-2.5,49.2-3.8,75.3-3.8s51.4,1.3,75.3,3.8c11.5,1.2,22.5,2.7,32.8,4.5,10.2,1.7,19.8,3.8,28.6,6,8.7,2.2,16.7,4.6,23.5,7.2,6.9,2.6,12.9,5.4,17.7,8.2,4.8,2.9,8.6,5.9,11,9,2.5,3,3.7,6.1,3.7,9.2s-1.8,7.4-5.3,11c-3.5,3.6-8.8,7.2-15.6,10.5-6.8,3.3-15.1,6.4-24.8,9.3-9.7,2.9-20.6,5.4-32.6,7.7-16,3-33.8,5.3-52.8,6.9-19.8,1.7-40.5,2.5-61.5,2.5Z"/>
    <path class="st2" d="M193.7,2c-26.1,0-51.4,1.3-75.2,3.8-11.4,1.2-22.5,2.7-32.8,4.5-10.2,1.7-19.8,3.7-28.5,5.9-8.7,2.2-16.6,4.6-23.4,7.2-6.9,2.6-12.8,5.3-17.5,8.2-4.7,2.8-8.4,5.8-10.8,8.7-2.3,2.9-3.5,5.8-3.5,8.6s1.2,5.7,3.5,8.6c2.4,3,6,5.9,10.8,8.7,4.8,2.8,10.6,5.6,17.5,8.2,6.9,2.6,14.7,5,23.4,7.2,8.7,2.2,18.3,4.2,28.5,5.9,10.3,1.8,21.3,3.3,32.8,4.5,23.8,2.5,49.1,3.8,75.2,3.8s41.7-.8,61.4-2.5c19-1.6,36.8-3.9,52.7-6.9,12-2.2,22.9-4.8,32.5-7.7,9.6-2.8,17.9-6,24.6-9.2,6.7-3.3,11.9-6.8,15.3-10.3,3.3-3.4,5-6.9,5-10.3s-1.2-5.7-3.5-8.6c-2.4-3-6-5.9-10.8-8.7-4.8-2.8-10.6-5.6-17.5-8.2-6.9-2.6-14.7-5-23.4-7.2-8.7-2.2-18.3-4.2-28.5-5.9-10.3-1.8-21.3-3.3-32.8-4.5-23.8-2.5-49.1-3.8-75.2-3.8M193.7,0C300.6,0,387.4,21.9,387.4,49s-30.9,30.5-79.2,39.5c-31.6,5.9-71.4,9.5-114.5,9.5C86.7,97.9,0,76,0,49S86.7,0,193.7,0Z"/>
  </g>
  <g id="AGREGAR_AL_CARRITO" class="st1">
    <g class="st1">
      <path class="st0" d="M25.6,61.7l2.1-21.5c0-.3.2-.5.6-.6.1,0,.3,0,.5,0s.4,0,.6,0c.4.1.7.3.9.6l11.3,21.5c.3.5.3.9,0,1.1-.2.2-.6.3-.9.3s-.6,0-.8-.2c-.3-.1-.5-.3-.6-.5l-2.8-5.4h-7.8l-.5,5.4c0,.2-.1.4-.3.5-.2.1-.5.2-.7.2s-.7-.1-1.1-.3c-.3-.2-.5-.6-.4-1.1ZM28.9,54.8h6.4l-5.3-10.2-1,10.2Z"/>
      <path class="st0" d="M43.5,56.3l-2-9.6c-.2-1.1-.3-2.1,0-3,.2-.9.6-1.6,1.1-2.2.6-.6,1.3-1.1,2.2-1.4.9-.3,1.9-.5,3.1-.5s2.2.2,3.1.5c.9.3,1.8.8,2.5,1.3.7.6,1.3,1.2,1.7,2,.5.8.8,1.6,1,2.5,0,.3,0,.5-.2.7-.2.1-.4.2-.7.2s-.6,0-.8-.2c-.3-.1-.4-.4-.5-.7-.3-1.3-.9-2.3-1.8-3s-2.2-1-3.8-1-3.2.4-3.8,1.2c-.6.8-.7,2-.4,3.5l2,9.6c.3,1.5.9,2.7,1.9,3.5s2.4,1.2,4.3,1.2,2.7-.3,3.3-1c.6-.7.8-1.7.5-3l-1-4.7h-4.1c-.2,0-.4-.1-.6-.4-.2-.3-.3-.5-.4-.8,0-.3,0-.5,0-.8s.3-.3.5-.3h5.6c.5,0,.8.3.9.8l1.3,6.2c.2.9.2,1.8,0,2.5-.1.8-.4,1.4-.9,2-.5.6-1.1,1-1.9,1.3-.8.3-1.8.5-2.9.5s-2.3-.2-3.3-.5c-1-.3-2-.8-2.8-1.4-.8-.6-1.5-1.3-2.1-2.2s-1-1.9-1.2-3Z"/>
      <path class="st0" d="M60.6,39.9h5.5c2.7,0,4.7.4,6.2,1.3,1.4.8,2.3,2.2,2.7,4l.5,2.4c.3,1.5.2,2.6-.4,3.4-.6.8-1.6,1.3-3,1.6l6.6,8.9c.2.4.4.6.5.9,0,.2,0,.4,0,.6,0,.2-.2.3-.4.4s-.4.1-.6.1-.6,0-.9-.2-.6-.3-.7-.6l-7.1-9.8h-4.9l2.1,9.8c0,.3,0,.5-.3.6-.3.1-.5.2-.9.2s-.6,0-.9-.2c-.3-.1-.5-.3-.5-.6l-4.5-21.1c-.1-.5,0-.8.2-1.1s.6-.4,1-.4ZM62.2,42.2l1.7,8.2h4.5c.9,0,1.7,0,2.3-.1.6,0,1.1-.2,1.5-.5s.6-.6.7-1,0-1,0-1.7l-.4-1.7c-.1-.6-.3-1.1-.6-1.6-.3-.4-.6-.8-1.1-1s-1-.4-1.7-.5c-.7-.1-1.5-.2-2.5-.2h-4.3Z"/>
      <path class="st0" d="M78.7,42.9c-.2-.9,0-1.7.3-2.2.4-.5,1.1-.8,2-.8h11.5c.2,0,.4.1.6.4.2.3.3.5.3.8,0,.3,0,.5,0,.8,0,.2-.2.3-.4.3h-11.1c-.5,0-.7.3-.6.8l1.4,6.5h10.7c.2,0,.4.1.5.3.1.2.2.5.3.8,0,.3,0,.6,0,.8,0,.3-.2.4-.4.4h-10.7l1.8,8.7c.1.5.4.8.9.8h11.1c.2,0,.4.1.5.3s.2.5.3.8c0,.3,0,.6,0,.8,0,.3-.2.4-.4.4h-11.5c-.9,0-1.7-.3-2.4-.8-.7-.5-1.1-1.3-1.3-2.2l-3.7-17.6Z"/>
      <path class="st0" d="M100,56.3l-2-9.6c-.2-1.1-.3-2.1,0-3,.2-.9.6-1.6,1.1-2.2.6-.6,1.3-1.1,2.2-1.4.9-.3,1.9-.5,3.1-.5s2.2.2,3.1.5c.9.3,1.8.8,2.5,1.3.7.6,1.3,1.2,1.7,2,.5.8.8,1.6,1,2.5,0,.3,0,.5-.2.7-.2.1-.4.2-.7.2s-.6,0-.8-.2c-.3-.1-.4-.4-.5-.7-.3-1.3-.9-2.3-1.8-3s-2.2-1-3.8-1-3.2.4-3.8,1.2c-.6.8-.7,2-.4,3.5l2,9.6c.3,1.5.9,2.7,1.9,3.5s2.4,1.2,4.3,1.2,2.7-.3,3.3-1c.6-.7.8-1.7.5-3l-1-4.7h-4.1c-.2,0-.4-.1-.6-.4-.2-.3-.3-.5-.4-.8,0-.3,0-.5,0-.8s.3-.3.5-.3h5.6c.5,0,.8.3.9.8l1.3,6.2c.2.9.2,1.8,0,2.5-.1.8-.4,1.4-.9,2-.5.6-1.1,1-1.9,1.3-.8.3-1.8.5-2.9.5s-2.3-.2-3.3-.5c-1-.3-2-.8-2.8-1.4-.8-.6-1.5-1.3-2.1-2.2s-1-1.9-1.2-3Z"/>
      <path class="st0" d="M119.6,61.7l2.1-21.5c0-.3.2-.5.6-.6.1,0,.3,0,.5,0s.4,0,.6,0c.4.1.7.3.9.6l11.3,21.5c.3.5.3.9,0,1.1-.2.2-.6.3-.9.3s-.6,0-.8-.2c-.3-.1-.5-.3-.6-.5l-2.8-5.4h-7.8l-.5,5.4c0,.2-.1.4-.3.5-.2.1-.5.2-.7.2s-.7-.1-1.1-.3c-.3-.2-.5-.6-.4-1.1ZM123,54.8h6.4l-5.3-10.2-1,10.2Z"/>
      <path class="st0" d="M135.9,39.9h5.5c2.7,0,4.7.4,6.2,1.3,1.4.8,2.3,2.2,2.7,4l.5,2.4c.3,1.5.2,2.6-.4,3.4-.6.8-1.6,1.3-3,1.6l6.6,8.9c.2.4.4.6.5.9,0,.2,0,.4,0,.6,0,.2-.2.3-.4.4s-.4.1-.6.1-.6,0-.9-.2-.6-.3-.7-.6l-7.1-9.8h-4.9l2.1,9.8c0,.3,0,.5-.3.6-.3.1-.5.2-.9.2s-.6,0-.9-.2c-.3-.1-.5-.3-.5-.6l-4.5-21.1c-.1-.5,0-.8.2-1.1s.6-.4,1-.4ZM137.4,42.2l1.7,8.2h4.5c.9,0,1.7,0,2.3-.1.6,0,1.1-.2,1.5-.5s.6-.6.7-1,0-1,0-1.7l-.4-1.7c-.1-.6-.3-1.1-.6-1.6-.3-.4-.6-.8-1.1-1s-1-.4-1.7-.5c-.7-.1-1.5-.2-2.5-.2h-4.3Z"/>
      <path class="st0" d="M176.1,61.7l2.1-21.5c0-.3.2-.5.6-.6.1,0,.3,0,.5,0s.4,0,.6,0c.4.1.7.3.9.6l11.3,21.5c.3.5.3.9,0,1.1-.2.2-.6.3-.9.3s-.6,0-.8-.2c-.3-.1-.5-.3-.6-.5l-2.8-5.4h-7.8l-.5,5.4c0,.2-.1.4-.3.5-.2.1-.5.2-.7.2s-.7-.1-1.1-.3c-.3-.2-.5-.6-.4-1.1ZM179.4,54.8h6.4l-5.3-10.2-1,10.2Z"/>
      <path class="st0" d="M210,60.7c.2,0,.4.1.6.3.2.2.3.5.3.8,0,.3,0,.6,0,.8,0,.3-.2.4-.4.4h-11.5c-.9,0-1.7-.3-2.4-.8-.7-.5-1.1-1.3-1.3-2.2l-4.3-20.1h2.6l4.3,20c.1.5.4.8.9.8h11.1Z"/>
      <path class="st0" d="M229.8,46.6c-.2-1.1-.3-2.1,0-3s.6-1.6,1.1-2.2c.6-.6,1.3-1.1,2.2-1.4.9-.3,1.9-.5,3.1-.5s2.2.2,3.1.5c.9.3,1.8.8,2.5,1.3.7.6,1.3,1.2,1.7,2s.8,1.6,1,2.5c0,.3,0,.5-.2.7-.2.1-.4.2-.7.2s-.6,0-.8-.2c-.3-.1-.4-.4-.5-.7-.3-1.3-.9-2.3-1.8-3-.9-.7-2.2-1-3.8-1s-3.2.4-3.8,1.2c-.6.8-.7,2-.4,3.5l2,9.6c.3,1.5.9,2.7,1.9,3.5s2.4,1.2,4.3,1.2,2.7-.3,3.3-1c.6-.7.8-1.7.5-3,0-.3,0-.5.2-.7.2-.1.4-.2.7-.2s.6,0,.8.2c.3.1.4.4.5.7.2.9.2,1.8,0,2.5-.1.8-.4,1.4-.9,2-.5.6-1.1,1-1.9,1.3s-1.8.5-2.9.5-2.3-.2-3.3-.5-2-.8-2.8-1.4c-.8-.6-1.5-1.3-2.1-2.2-.6-.9-1-1.9-1.2-3l-2-9.6Z"/>
      <path class="st0" d="M251.3,61.7l2.1-21.5c0-.3.2-.5.6-.6.1,0,.3,0,.5,0s.4,0,.6,0c.4.1.7.3.9.6l11.3,21.5c.3.5.3.9,0,1.1-.2.2-.6.3-.9.3s-.6,0-.8-.2c-.3-.1-.5-.3-.6-.5l-2.8-5.4h-7.8l-.5,5.4c0,.2-.1.4-.3.5-.2.1-.5.2-.7.2s-.7-.1-1.1-.3c-.3-.2-.5-.6-.4-1.1ZM254.6,54.8h6.4l-5.3-10.2-1,10.2Z"/>
      <path class="st0" d="M267.5,39.9h5.5c2.7,0,4.7.4,6.2,1.3,1.4.8,2.3,2.2,2.7,4l.5,2.4c.3,1.5.2,2.6-.4,3.4-.6.8-1.6,1.3-3,1.6l6.6,8.9c.2.4.4.6.5.9,0,.2,0,.4,0,.6,0,.2-.2.3-.4.4s-.4.1-.6.1-.6,0-.9-.2c-.3-.1-.5-.3-.7-.6l-7.1-9.8h-5l2.1,9.8c0,.3,0,.5-.3.6-.3.1-.5.2-.9.2s-.6,0-.9-.2c-.3-.1-.5-.3-.5-.6l-4.5-21.1c-.1-.5,0-.8.2-1.1.2-.3.6-.4,1-.4ZM269.1,42.2l1.7,8.2h4.5c.9,0,1.7,0,2.3-.1s1.1-.2,1.5-.5c.4-.2.6-.6.7-1s0-1,0-1.7l-.4-1.7c-.1-.6-.3-1.1-.6-1.6-.3-.4-.6-.8-1.1-1s-1-.4-1.7-.5c-.7-.1-1.5-.2-2.5-.2h-4.3Z"/>
      <path class="st0" d="M286.3,39.9h5.5c2.7,0,4.7.4,6.2,1.3s2.3,2.2,2.7,4l.5,2.4c.3,1.5.2,2.6-.4,3.4s-1.6,1.3-3,1.6l6.6,8.9c.2.4.4.6.5.9s0,.4,0,.6-.2.3-.4.4-.4.1-.6.1-.6,0-.9-.2c-.3-.1-.6-.3-.7-.6l-7.1-9.8h-4.9l2.1,9.8c0,.3,0,.5-.3.6-.3.1-.5.2-.9.2s-.6,0-.9-.2c-.3-.1-.5-.3-.5-.6l-4.5-21.1c-.1-.5,0-.8.2-1.1.2-.3.6-.4,1-.4ZM287.9,42.2l1.7,8.2h4.5c.9,0,1.7,0,2.3-.1.6,0,1.1-.2,1.5-.5.4-.2.6-.6.7-1s0-1,0-1.7l-.4-1.7c-.1-.6-.3-1.1-.6-1.6-.3-.4-.6-.8-1.1-1s-1-.4-1.7-.5c-.7-.1-1.5-.2-2.5-.2h-4.3Z"/>
      <path class="st0" d="M304.7,41c0-.3,0-.5,0-.8,0-.2.2-.3.4-.3h11.9c.2,0,.4.1.6.3.2.2.3.5.3.8,0,.3,0,.6,0,.8,0,.3-.2.4-.4.4h-4.6l3.9,18.5h4.6c.2,0,.4.1.6.3.2.2.3.5.3.8,0,.3,0,.6,0,.8,0,.3-.2.4-.4.4h-11.9c-.2,0-.4-.1-.6-.4-.2-.3-.3-.5-.3-.8,0-.3,0-.5,0-.8,0-.2.2-.3.4-.3h4.6l-3.9-18.5h-4.6c-.2,0-.4-.1-.6-.4-.2-.3-.3-.5-.3-.8Z"/>
      <path class="st0" d="M323.4,42.2c-.2,0-.4-.1-.5-.3-.1-.2-.2-.5-.3-.8,0-.3,0-.6,0-.8s.2-.4.4-.4h13.9c.2,0,.4.1.6.4.2.3.3.5.3.8,0,.3,0,.5,0,.8,0,.2-.2.3-.4.3h-4.9c-.5,0-.7.3-.6.8l4.2,19.6c0,.3,0,.5-.3.6-.3.1-.5.2-.9.2s-.6,0-.9-.2c-.3-.1-.5-.3-.5-.6l-4.2-19.6c-.1-.5-.4-.8-.9-.8h-4.9Z"/>
      <path class="st0" d="M344.4,56.3l-2-9.6c-.2-1.1-.3-2.1,0-3s.6-1.6,1.2-2.2c.6-.6,1.3-1.1,2.2-1.4.9-.3,1.8-.5,2.9-.5s2.1.2,3.1.5c1,.3,1.9.8,2.8,1.4.8.6,1.6,1.3,2.2,2.2.6.9,1,1.9,1.3,3l2,9.6c.2,1.1.2,2.1,0,3-.2.9-.6,1.6-1.2,2.2-.6.6-1.3,1.1-2.2,1.4s-1.9.5-3,.5-2.1-.2-3.1-.5-1.9-.8-2.7-1.4c-.8-.6-1.5-1.3-2.1-2.2-.6-.9-1-1.9-1.3-3ZM345.1,47l1.9,9c.3,1.5,1,2.7,2,3.7,1,.9,2.4,1.4,4.1,1.4s3-.5,3.6-1.4c.6-.9.8-2.2.5-3.7l-1.9-9c-.3-1.5-1-2.8-2.1-3.7-1-.9-2.4-1.4-4.2-1.4s-1.5.1-2,.4c-.6.3-1,.6-1.4,1.1-.3.5-.6,1-.7,1.6s0,1.3,0,2Z"/>
    </g>
    <g class="st1">
      <path class="st3" d="M25.6,61.7l2.1-21.5c0-.3.2-.5.6-.6.1,0,.3,0,.5,0s.4,0,.6,0c.4.1.7.3.9.6l11.3,21.5c.3.5.3.9,0,1.1-.2.2-.6.3-.9.3s-.6,0-.8-.2c-.3-.1-.5-.3-.6-.5l-2.8-5.4h-7.8l-.5,5.4c0,.2-.1.4-.3.5-.2.1-.5.2-.7.2s-.7-.1-1.1-.3c-.3-.2-.5-.6-.4-1.1ZM28.9,54.8h6.4l-5.3-10.2-1,10.2Z"/>
      <path class="st3" d="M43.5,56.3l-2-9.6c-.2-1.1-.3-2.1,0-3,.2-.9.6-1.6,1.1-2.2.6-.6,1.3-1.1,2.2-1.4.9-.3,1.9-.5,3.1-.5s2.2.2,3.1.5c.9.3,1.8.8,2.5,1.3.7.6,1.3,1.2,1.7,2,.5.8.8,1.6,1,2.5,0,.3,0,.5-.2.7-.2.1-.4.2-.7.2s-.6,0-.8-.2c-.3-.1-.4-.4-.5-.7-.3-1.3-.9-2.3-1.8-3s-2.2-1-3.8-1-3.2.4-3.8,1.2c-.6.8-.7,2-.4,3.5l2,9.6c.3,1.5.9,2.7,1.9,3.5s2.4,1.2,4.3,1.2,2.7-.3,3.3-1c.6-.7.8-1.7.5-3l-1-4.7h-4.1c-.2,0-.4-.1-.6-.4-.2-.3-.3-.5-.4-.8,0-.3,0-.5,0-.8s.3-.3.5-.3h5.6c.5,0,.8.3.9.8l1.3,6.2c.2.9.2,1.8,0,2.5-.1.8-.4,1.4-.9,2-.5.6-1.1,1-1.9,1.3-.8.3-1.8.5-2.9.5s-2.3-.2-3.3-.5c-1-.3-2-.8-2.8-1.4-.8-.6-1.5-1.3-2.1-2.2s-1-1.9-1.2-3Z"/>
      <path class="st3" d="M60.6,39.9h5.5c2.7,0,4.7.4,6.2,1.3,1.4.8,2.3,2.2,2.7,4l.5,2.4c.3,1.5.2,2.6-.4,3.4-.6.8-1.6,1.3-3,1.6l6.6,8.9c.2.4.4.6.5.9,0,.2,0,.4,0,.6,0,.2-.2.3-.4.4s-.4.1-.6.1-.6,0-.9-.2-.6-.3-.7-.6l-7.1-9.8h-4.9l2.1,9.8c0,.3,0,.5-.3.6-.3.1-.5.2-.9.2s-.6,0-.9-.2c-.3-.1-.5-.3-.5-.6l-4.5-21.1c-.1-.5,0-.8.2-1.1s.6-.4,1-.4ZM62.2,42.2l1.7,8.2h4.5c.9,0,1.7,0,2.3-.1.6,0,1.1-.2,1.5-.5s.6-.6.7-1,0-1,0-1.7l-.4-1.7c-.1-.6-.3-1.1-.6-1.6-.3-.4-.6-.8-1.1-1s-1-.4-1.7-.5c-.7-.1-1.5-.2-2.5-.2h-4.3Z"/>
      <path class="st3" d="M78.7,42.9c-.2-.9,0-1.7.3-2.2.4-.5,1.1-.8,2-.8h11.5c.2,0,.4.1.6.4.2.3.3.5.3.8,0,.3,0,.5,0,.8,0,.2-.2.3-.4.3h-11.1c-.5,0-.7.3-.6.8l1.4,6.5h10.7c.2,0,.4.1.5.3.1.2.2.5.3.8,0,.3,0,.6,0,.8,0,.3-.2.4-.4.4h-10.7l1.8,8.7c.1.5.4.8.9.8h11.1c.2,0,.4.1.5.3s.2.5.3.8c0,.3,0,.6,0,.8,0,.3-.2.4-.4.4h-11.5c-.9,0-1.7-.3-2.4-.8-.7-.5-1.1-1.3-1.3-2.2l-3.7-17.6Z"/>
      <path class="st3" d="M100,56.3l-2-9.6c-.2-1.1-.3-2.1,0-3,.2-.9.6-1.6,1.1-2.2.6-.6,1.3-1.1,2.2-1.4.9-.3,1.9-.5,3.1-.5s2.2.2,3.1.5c.9.3,1.8.8,2.5,1.3.7.6,1.3,1.2,1.7,2,.5.8.8,1.6,1,2.5,0,.3,0,.5-.2.7-.2.1-.4.2-.7.2s-.6,0-.8-.2c-.3-.1-.4-.4-.5-.7-.3-1.3-.9-2.3-1.8-3s-2.2-1-3.8-1-3.2.4-3.8,1.2c-.6.8-.7,2-.4,3.5l2,9.6c.3,1.5.9,2.7,1.9,3.5s2.4,1.2,4.3,1.2,2.7-.3,3.3-1c.6-.7.8-1.7.5-3l-1-4.7h-4.1c-.2,0-.4-.1-.6-.4-.2-.3-.3-.5-.4-.8,0-.3,0-.5,0-.8s.3-.3.5-.3h5.6c.5,0,.8.3.9.8l1.3,6.2c.2.9.2,1.8,0,2.5-.1.8-.4,1.4-.9,2-.5.6-1.1,1-1.9,1.3-.8.3-1.8.5-2.9.5s-2.3-.2-3.3-.5c-1-.3-2-.8-2.8-1.4-.8-.6-1.5-1.3-2.1-2.2s-1-1.9-1.2-3Z"/>
      <path class="st3" d="M119.6,61.7l2.1-21.5c0-.3.2-.5.6-.6.1,0,.3,0,.5,0s.4,0,.6,0c.4.1.7.3.9.6l11.3,21.5c.3.5.3.9,0,1.1-.2.2-.6.3-.9.3s-.6,0-.8-.2c-.3-.1-.5-.3-.6-.5l-2.8-5.4h-7.8l-.5,5.4c0,.2-.1.4-.3.5-.2.1-.5.2-.7.2s-.7-.1-1.1-.3c-.3-.2-.5-.6-.4-1.1ZM123,54.8h6.4l-5.3-10.2-1,10.2Z"/>
      <path class="st3" d="M135.9,39.9h5.5c2.7,0,4.7.4,6.2,1.3,1.4.8,2.3,2.2,2.7,4l.5,2.4c.3,1.5.2,2.6-.4,3.4-.6.8-1.6,1.3-3,1.6l6.6,8.9c.2.4.4.6.5.9,0,.2,0,.4,0,.6,0,.2-.2.3-.4.4s-.4.1-.6.1-.6,0-.9-.2-.6-.3-.7-.6l-7.1-9.8h-4.9l2.1,9.8c0,.3,0,.5-.3.6-.3.1-.5.2-.9.2s-.6,0-.9-.2c-.3-.1-.5-.3-.5-.6l-4.5-21.1c-.1-.5,0-.8.2-1.1s.6-.4,1-.4ZM137.4,42.2l1.7,8.2h4.5c.9,0,1.7,0,2.3-.1.6,0,1.1-.2,1.5-.5s.6-.6.7-1,0-1,0-1.7l-.4-1.7c-.1-.6-.3-1.1-.6-1.6-.3-.4-.6-.8-1.1-1s-1-.4-1.7-.5c-.7-.1-1.5-.2-2.5-.2h-4.3Z"/>
      <path class="st3" d="M176.1,61.7l2.1-21.5c0-.3.2-.5.6-.6.1,0,.3,0,.5,0s.4,0,.6,0c.4.1.7.3.9.6l11.3,21.5c.3.5.3.9,0,1.1-.2.2-.6.3-.9.3s-.6,0-.8-.2c-.3-.1-.5-.3-.6-.5l-2.8-5.4h-7.8l-.5,5.4c0,.2-.1.4-.3.5-.2.1-.5.2-.7.2s-.7-.1-1.1-.3c-.3-.2-.5-.6-.4-1.1ZM179.4,54.8h6.4l-5.3-10.2-1,10.2Z"/>
      <path class="st3" d="M210,60.7c.2,0,.4.1.6.3.2.2.3.5.3.8,0,.3,0,.6,0,.8,0,.3-.2.4-.4.4h-11.5c-.9,0-1.7-.3-2.4-.8-.7-.5-1.1-1.3-1.3-2.2l-4.3-20.1h2.6l4.3,20c.1.5.4.8.9.8h11.1Z"/>
      <path class="st3" d="M229.8,46.6c-.2-1.1-.3-2.1,0-3s.6-1.6,1.1-2.2c.6-.6,1.3-1.1,2.2-1.4.9-.3,1.9-.5,3.1-.5s2.2.2,3.1.5c.9.3,1.8.8,2.5,1.3.7.6,1.3,1.2,1.7,2s.8,1.6,1,2.5c0,.3,0,.5-.2.7-.2.1-.4.2-.7.2s-.6,0-.8-.2c-.3-.1-.4-.4-.5-.7-.3-1.3-.9-2.3-1.8-3-.9-.7-2.2-1-3.8-1s-3.2.4-3.8,1.2c-.6.8-.7,2-.4,3.5l2,9.6c.3,1.5.9,2.7,1.9,3.5s2.4,1.2,4.3,1.2,2.7-.3,3.3-1c.6-.7.8-1.7.5-3,0-.3,0-.5.2-.7.2-.1.4-.2.7-.2s.6,0,.8.2c.3.1.4.4.5.7.2.9.2,1.8,0,2.5-.1.8-.4,1.4-.9,2-.5.6-1.1,1-1.9,1.3s-1.8.5-2.9.5-2.3-.2-3.3-.5-2-.8-2.8-1.4c-.8-.6-1.5-1.3-2.1-2.2-.6-.9-1-1.9-1.2-3l-2-9.6Z"/>
      <path class="st3" d="M251.3,61.7l2.1-21.5c0-.3.2-.5.6-.6.1,0,.3,0,.5,0s.4,0,.6,0c.4.1.7.3.9.6l11.3,21.5c.3.5.3.9,0,1.1-.2.2-.6.3-.9.3s-.6,0-.8-.2c-.3-.1-.5-.3-.6-.5l-2.8-5.4h-7.8l-.5,5.4c0,.2-.1.4-.3.5-.2.1-.5.2-.7.2s-.7-.1-1.1-.3c-.3-.2-.5-.6-.4-1.1ZM254.6,54.8h6.4l-5.3-10.2-1,10.2Z"/>
      <path class="st3" d="M267.5,39.9h5.5c2.7,0,4.7.4,6.2,1.3,1.4.8,2.3,2.2,2.7,4l.5,2.4c.3,1.5.2,2.6-.4,3.4-.6.8-1.6,1.3-3,1.6l6.6,8.9c.2.4.4.6.5.9,0,.2,0,.4,0,.6,0,.2-.2.3-.4.4s-.4.1-.6.1-.6,0-.9-.2c-.3-.1-.5-.3-.7-.6l-7.1-9.8h-5l2.1,9.8c0,.3,0,.5-.3.6-.3.1-.5.2-.9.2s-.6,0-.9-.2c-.3-.1-.5-.3-.5-.6l-4.5-21.1c-.1-.5,0-.8.2-1.1.2-.3.6-.4,1-.4ZM269.1,42.2l1.7,8.2h4.5c.9,0,1.7,0,2.3-.1s1.1-.2,1.5-.5c.4-.2.6-.6.7-1s0-1,0-1.7l-.4-1.7c-.1-.6-.3-1.1-.6-1.6-.3-.4-.6-.8-1.1-1s-1-.4-1.7-.5c-.7-.1-1.5-.2-2.5-.2h-4.3Z"/>
      <path class="st3" d="M286.3,39.9h5.5c2.7,0,4.7.4,6.2,1.3s2.3,2.2,2.7,4l.5,2.4c.3,1.5.2,2.6-.4,3.4s-1.6,1.3-3,1.6l6.6,8.9c.2.4.4.6.5.9s0,.4,0,.6-.2.3-.4.4-.4.1-.6.1-.6,0-.9-.2c-.3-.1-.6-.3-.7-.6l-7.1-9.8h-4.9l2.1,9.8c0,.3,0,.5-.3.6-.3.1-.5.2-.9.2s-.6,0-.9-.2c-.3-.1-.5-.3-.5-.6l-4.5-21.1c-.1-.5,0-.8.2-1.1.2-.3.6-.4,1-.4ZM287.9,42.2l1.7,8.2h4.5c.9,0,1.7,0,2.3-.1.6,0,1.1-.2,1.5-.5.4-.2.6-.6.7-1s0-1,0-1.7l-.4-1.7c-.1-.6-.3-1.1-.6-1.6-.3-.4-.6-.8-1.1-1s-1-.4-1.7-.5c-.7-.1-1.5-.2-2.5-.2h-4.3Z"/>
      <path class="st3" d="M304.7,41c0-.3,0-.5,0-.8,0-.2.2-.3.4-.3h11.9c.2,0,.4.1.6.3.2.2.3.5.3.8,0,.3,0,.6,0,.8,0,.3-.2.4-.4.4h-4.6l3.9,18.5h4.6c.2,0,.4.1.6.3.2.2.3.5.3.8,0,.3,0,.6,0,.8,0,.3-.2.4-.4.4h-11.9c-.2,0-.4-.1-.6-.4-.2-.3-.3-.5-.3-.8,0-.3,0-.5,0-.8,0-.2.2-.3.4-.3h4.6l-3.9-18.5h-4.6c-.2,0-.4-.1-.6-.4-.2-.3-.3-.5-.3-.8Z"/>
      <path class="st3" d="M323.4,42.2c-.2,0-.4-.1-.5-.3-.1-.2-.2-.5-.3-.8,0-.3,0-.6,0-.8s.2-.4.4-.4h13.9c.2,0,.4.1.6.4.2.3.3.5.3.8,0,.3,0,.5,0,.8,0,.2-.2.3-.4.3h-4.9c-.5,0-.7.3-.6.8l4.2,19.6c0,.3,0,.5-.3.6-.3.1-.5.2-.9.2s-.6,0-.9-.2c-.3-.1-.5-.3-.5-.6l-4.2-19.6c-.1-.5-.4-.8-.9-.8h-4.9Z"/>
      <path class="st3" d="M344.4,56.3l-2-9.6c-.2-1.1-.3-2.1,0-3s.6-1.6,1.2-2.2c.6-.6,1.3-1.1,2.2-1.4.9-.3,1.8-.5,2.9-.5s2.1.2,3.1.5c1,.3,1.9.8,2.8,1.4.8.6,1.6,1.3,2.2,2.2.6.9,1,1.9,1.3,3l2,9.6c.2,1.1.2,2.1,0,3-.2.9-.6,1.6-1.2,2.2-.6.6-1.3,1.1-2.2,1.4s-1.9.5-3,.5-2.1-.2-3.1-.5-1.9-.8-2.7-1.4c-.8-.6-1.5-1.3-2.1-2.2-.6-.9-1-1.9-1.3-3ZM345.1,47l1.9,9c.3,1.5,1,2.7,2,3.7,1,.9,2.4,1.4,4.1,1.4s3-.5,3.6-1.4c.6-.9.8-2.2.5-3.7l-1.9-9c-.3-1.5-1-2.8-2.1-3.7-1-.9-2.4-1.4-4.2-1.4s-1.5.1-2,.4c-.6.3-1,.6-1.4,1.1-.3.5-.6,1-.7,1.6s0,1.3,0,2Z"/>
    </g>
  </g>
</svg>