<?xml version="1.0" encoding="UTF-8"?>
<svg id="Capa_1" xmlns="http://www.w3.org/2000/svg" version="1.1" viewBox="0 0 55.1 52.5">
  <!-- Generator: Adobe Illustrator 30.3.0, SVG Export Plug-In . SVG Version: 2.1.3 Build 182)  -->
  <defs>
    <style>
      .st0 {
        fill: #123aa0;
      }
    </style>
  </defs>
  <g id="cart-4_broken">
    <g id="Trazado_9">
      <path class="st0" d="M41.7,52.5c-4.5,0-8.2-3.7-8.2-8.2s.4-1.6.9-2.2h-5.5c.2.7.3,1.4.3,2.2,0,4.5-3.7,8.2-8.2,8.2s-8.2-3.7-8.2-8.2.1-1.7.4-2.5c-.9-.4-1.5-1.3-1.6-2.3L6.9,6h-3.9c-1.7,0-3-1.3-3-3S1.3,0,3,0h6.5C10.9,0,12.2,1.1,12.4,2.6l3.7,25.8h28.2c1.7,0,3,1.3,3,3s-1.3,3-3,3h-27.3l.2,1.7h24.5c4.5,0,8.2,3.7,8.2,8.2s-3.7,8.2-8.2,8.2ZM38.7,42.2c.6.5.9,1.3.9,2.2s1,2.2,2.2,2.2,2.2-1,2.2-2.2-1-2.2-2.2-2.2h-3.1ZM21.1,42.2c-1.2,0-2.2,1-2.2,2.2s1,2.2,2.2,2.2,2.2-1,2.2-2.2-1-2.2-2.2-2.2ZM46.9,26.7c-.3,0-.6,0-.9-.2-1.6-.5-2.4-2.2-1.9-3.8l3.8-11.5h-26.8c-1.7,0-3-1.3-3-3s1.3-3,3-3h31c1,0,1.9.5,2.4,1.2.6.8.7,1.8.4,2.7l-5.2,15.5c-.4,1.3-1.6,2.1-2.8,2.1Z"/>
    </g>
  </g>
</svg>