<?xml version="1.0" encoding="UTF-8"?>
<svg id="Capa_1" xmlns="http://www.w3.org/2000/svg" version="1.1" viewBox="0 0 57.8 57.8">
  <!-- Generator: Adobe Illustrator 30.3.0, SVG Export Plug-In . SVG Version: 2.1.3 Build 182)  -->
  <defs>
    <style>
      .st0 {
        fill: #123aa0;
      }
    </style>
  </defs>
  <path class="st0" d="M28.9,10.3c-2.9,0-5.6,1.1-7.7,3.2s-3.2,4.8-3.2,7.7c0,2.9,1.1,5.6,3.2,7.7,2,2,4.8,3.2,7.7,3.2h0c6,0,10.8-4.9,10.8-10.8s-4.9-10.8-10.8-10.8ZM28.9,25.8c-2.6,0-4.7-2.1-4.7-4.7s2.1-4.7,4.7-4.7,4.7,2.1,4.7,4.7-2.1,4.7-4.7,4.7Z"/>
  <path class="st0" d="M49.4,8.4C43.9,3,36.7,0,29,0h0c-7.7,0-14.9,3.1-20.3,8.5C3.2,14,.2,21.2.3,28.9c0,15.8,13,28.6,28.8,28.6h.1c7.7,0,14.9-3.1,20.3-8.5,5.4-5.5,8.4-12.7,8.3-20.4,0-7.6-3-14.8-8.4-20.2ZM14,46c4.6-2.4,9.7-3.7,14.9-3.7,5.2,0,10.3,1.4,14.9,3.7-8.5,7.4-21.3,7.4-29.8,0ZM48,41.3c-5.8-3.3-12.4-5-19.1-5.1-6.7,0-13.2,1.9-19.1,5.1-2.4-3.7-3.7-8-3.7-12.4,0-6.1,2.3-11.8,6.6-16.1,4.3-4.3,10-6.7,16-6.8,0,0,.1,0,.2,0,12.5,0,22.6,10.1,22.7,22.6v.3c0,4.4-1.2,8.7-3.7,12.4Z"/>
</svg>