<?xml version="1.0" encoding="UTF-8"?>
<svg id="Grupo_62" xmlns="http://www.w3.org/2000/svg" version="1.1" viewBox="0 0 349.5 349.6">
  <!-- Generator: Adobe Illustrator 30.3.0, SVG Export Plug-In . SVG Version: 2.1.3 Build 182)  -->
  <defs>
    <style>
      .st0 {
        fill: #123aa0;
      }
    </style>
  </defs>
  <path class="st0" d="M220.5,215.6c-.2.8-.2,1.7-.1,2.5.1.8.5,1.6,1,2.3.5.7,1.3,1.4,2.4,2,1.1.7,2.2,1,3.2,1.1,1,0,2,0,2.8-.3.8-.3,1.6-.8,2.3-1.4.7-.6,1.2-1.3,1.6-2l7-12.2-19.3,5.4c-.4.8-.7,1.6-.9,2.5Z"/>
  <path class="st0" d="M242.4,196.2c-.6-.7-1.3-1.3-2.3-1.9-1.1-.6-2.1-1-3-1.1-.9,0-1.8,0-2.6.3-.8.3-1.5.8-2.1,1.4-.6.6-1.2,1.4-1.6,2.2l-6.4,11.1,19.2-5.3c.2-.7.4-1.5.4-2.2,0-.8,0-1.5-.3-2.3-.2-.8-.7-1.5-1.2-2.2Z"/>
  <path class="st0" d="M299.6,177.8l-25.6-26.8,10-34.1c1.3-6.5-2.7-12.9-9.2-14.7l-35-6-12.9-34.8c-1-3.3-3.4-6.1-6.7-7.4-3.2-.9-6.6-.5-9.5,1.2l-30.4,15.6-29.8-21.5c-2.6-2.3-6.2-3.1-9.5-2.2-3.4.8-6.2,3.1-7.7,6.2l-14.5,32.2-35.3-1c-6.4.1-11.4,5.4-11.3,11.7,0,.7,0,1.4.2,2l6.3,36.2-27.3,20.5c-2.8,1.8-4.6,4.7-5.2,8-.2,3.5,1.2,6.9,3.7,9.2l25.6,26.8-9.5,33.8c-1.8,6.1,1.7,12.5,7.8,14.3.5.1.9.2,1.4.3l34.5,6.3,12.9,34.8c1,3.3,3.4,6.1,6.7,7.4,3.2.9,6.6.5,9.5-1.2l30.4-15.6,29.8,21.5c5.1,3.8,12.3,2.8,16.2-2.2.4-.5.8-1.1,1.1-1.7l14.6-32.2,35.3,1c3.5,0,6.7-1.5,8.9-4.2,2.3-2.6,3.1-6.2,2.2-9.5l-6.3-36.2,27.3-20.5c2.8-1.8,4.6-4.7,5.2-8,.2-3.5-1.2-6.9-3.7-9.2ZM124.2,166.1c-.4.6-.8,1-1.4,1.1-.6.2-1.1,0-1.8-.3l-.8-.4c-.5-.3-.8-.6-1.1-1.1-.3-.5-.4-1-.4-1.5l1.3-33-15,26c-.2.4-.6.6-1.1.5-.5,0-1-.2-1.5-.5-.5-.3-.9-.6-1.2-1-.3-.4-.3-.8-.1-1.2l18.2-31.5c.4-.7.8-1.1,1.2-1.2.4-.1.9,0,1.5.4l1.6.9c.3.2.6.5.7.9.2.4.2,1,.2,1.8l-1.3,32.7,14.5-25.2c.2-.4.6-.6,1.1-.5.5,0,1,.2,1.5.5.5.3.9.6,1.2,1,.3.4.3.8.1,1.2l-17.6,30.5ZM150.2,180.3c-2.3,1-4.8.7-7.5-.8l-6.3-3.6c-2.7-1.5-4.2-3.6-4.5-6.1-.3-2.5.5-5.4,2.3-8.6l13.2-22.9c.3-.5.6-.7,1.1-.7.5,0,1,0,1.4.4.4.2.7.5,1,.9.2.4.2.7,0,1l-13.4,23.2c-1.4,2.4-2,4.4-1.9,6.1,0,1.7,1.1,3.1,2.9,4.1l5.1,3c1.8,1.1,3.5,1.2,5,.5,1.5-.8,3-2.3,4.3-4.7l13.4-23.2c.2-.3.5-.5.9-.5.4,0,.8.1,1.3.4.5.3.8.6,1,1,.2.4.2.9,0,1.3l-13.2,22.9c-1.9,3.2-4,5.3-6.3,6.3ZM187.5,181c-.3.5-.6.8-.9,1.1-.4.3-.7.3-1,.2l-15.8-9.1-7.4,12.8c-.4.7-.3,1.3.5,1.8l16.3,9.4c.3.2.5.5.4.9,0,.4-.2.8-.4,1.2-.3.5-.6.8-.9,1.1s-.7.3-1,.2l-16.9-9.7c-1.4-.8-2.2-1.8-2.5-3.1-.3-1.3-.1-2.6.7-3.9l14.9-25.8c.8-1.4,1.8-2.2,3.1-2.5,1.3-.3,2.6-.1,3.9.7l16.9,9.7c.3.2.4.5.4,1,0,.5-.2.9-.5,1.4-.2.4-.5.8-.9,1s-.7.3-1,0l-16.3-9.4c-.7-.4-1.3-.3-1.8.5l-5.5,9.6,15.8,9.1c.3.2.5.5.4.9,0,.4-.2.8-.4,1.2ZM197.1,210.1c-.4.3-.9.4-1.6.3-.3,0-.6-.2-1-.4-.3-.2-.5-.4-.7-.6-.5-.5-.7-1-.6-1.5l8.4-37.3c.2-.9.6-1.4,1.2-1.5.6,0,1.2,0,1.8.3.4.2.7.5,1,.9.3.4.3.7.3,1.1l-7,31.2,23.5-21.7c.3-.3.6-.4,1.1-.3.4,0,.9.2,1.3.4.5.3.9.8,1.2,1.4.2.6,0,1.2-.7,1.8l-28.1,25.9ZM248.4,201.9c-.1,1.4-.6,2.8-1.4,4.1l-9.6,16.7c-.8,1.3-1.7,2.4-2.9,3.2-1.1.8-2.4,1.4-3.7,1.7-1.3.3-2.8.3-4.2,0-1.5-.3-3-.8-4.4-1.6s-2.7-1.8-3.6-3-1.6-2.4-2-3.7c-.4-1.3-.6-2.6-.4-4.1.1-1.4.6-2.8,1.4-4.1l9.6-16.7c.8-1.4,1.7-2.4,2.9-3.3,1.1-.8,2.4-1.4,3.7-1.7,1.3-.3,2.7-.3,4.2,0,1.5.2,2.9.8,4.4,1.6,1.5.8,2.7,1.8,3.6,3,1,1.2,1.7,2.4,2.1,3.7s.5,2.7.4,4.1Z"/>
</svg>