<svg xmlns="http://www.w3.org/2000/svg" xmlns:xlink="http://www.w3.org/1999/xlink" width="51.515" height="51.528" viewBox="0 0 51.515 51.528">
  <defs>
    <clipPath id="clip-path">
      <rect id="Rectángulo_59" data-name="Rectángulo 59" width="51.515" height="51.528" fill="#123aa0"/>
    </clipPath>
  </defs>
  <g id="Grupo_61" data-name="Grupo 61" transform="translate(0 0)">
    <g id="Grupo_58" data-name="Grupo 58" transform="translate(0 0)" clip-path="url(#clip-path)">
      <path id="Trazado_55" data-name="Trazado 55" d="M47.184,24.648a21.456,21.456,0,0,0-42.863.177c-.063,1.373-.028,2.707,0,4.176l1.79-1.758,4.3-1.262a6.44,6.44,0,0,1,6.455,6.4l0,12.8a6.25,6.25,0,0,1-6.439,6.253,23.516,23.516,0,0,1-4.348-1.191L3.409,47.61A10.972,10.972,0,0,1,0,39.715L0,25.765A25.757,25.757,0,0,1,45.462,9.186a25.538,25.538,0,0,1,6.047,16.453l.006,14.078a10.726,10.726,0,0,1-3.157,7.635l-2.9,2.926-4.272,1.249a6.423,6.423,0,0,1-6.534-6.355l0-12.784A6.418,6.418,0,0,1,41.205,26l4.2,1.244L47.2,29Z" transform="translate(0 0)" fill="#123aa0"/>
    </g>
  </g>
</svg>
